<svg data-ds-icon="VIPDiamondIV" width="16" height="16" viewBox="0 0 24 24" xmlns="http://www.w3.org/2000/svg" fill="none" class="inline-block shrink-0"><!----><path fill="#fff" d="M4.791 5.5V1l3.893 4.5-4.671 3.328L.99 5.501z"></path><path fill="#BDE9FF" d="M17.156 17.353v4.501l-3.893-4.5 4.671-3.328 3.023 3.327z"></path><path fill="#BDE9FF" d="M19.217 5.5c-4.699.688-9.507.697-14.426 0L1.01 11 12 23l10.99-12-3.782-5.5z"></path><path fill="#E7C9FF" d="M7.347 13.723 11.999 23l4.653-9.277s-5.303-1.64-9.305 0"></path><path fill="#E7C9FF" d="M4.791 5.5s6.091.423 7.208 2.53c0 0-2.857 5.492-4.652 5.693 0 0-3.362-6.105-2.556-8.213z"></path><path fill="#fff" d="m12 8.03-4.653 5.693h9.305z"></path><path fill="#B0B8FC" d="M22.99 11 12 23l4.652-9.277zM1.009 11l10.99 12-4.652-9.277z"></path><path fill="#BDE9FF" d="m4.791 5.5 2.556 8.223-6.338-2.722z"></path><path fill="#E7C9FF" d="m19.217 5.5-2.565 8.223 6.338-2.722z"></path><path fill="#fff" d="M4.791 5.5 12 8.03l7.218-2.53z"></path><path fill="#000" d="M6.788 7.838h2.491v8.25H6.788zm6.246 8.25-3.04-8.25h2.83l1.777 5.555 1.776-5.555h2.83l-3.04 8.25h-3.142z"></path></svg>
