<svg data-ds-icon="VIPObsidianII" width="16" height="16" viewBox="0 0 24 24" xmlns="http://www.w3.org/2000/svg" fill="none" class="inline-block shrink-0"><!----><path fill="#9000FF" d="M7.444 1 1 7.444v9.112L7.444 23h9.112L23 16.556V7.444L16.556 1z"></path><path fill="#A42EFF" d="M23 7.444 16.556 1h-3.392l.532 8.04 8.846 7.983.458-.467z"></path><path fill="#D296FF" d="M9.04 6.922 10.835 1H7.444L1 7.444v9.112l.413.412L6.078 12z"></path><path fill="#E2BDFF" d="M14.96 6.922 13.165 1h-2.328L9.039 6.922z"></path><path fill="#EBD1FF" d="M9.04 6.922 2.98 5.464l-1.55 1.54L6.079 12z"></path><path fill="#E2BDFF" d="m6.078 12-4.665 4.968 1.54 1.54 6.086-1.43zm2.962 5.078L10.8 23h2.327l1.834-5.922z"></path><path fill="#E2BDFF" d="m14.96 17.078 6.032 1.485 1.55-1.54L17.922 12zM17.922 12l4.693-4.94-1.54-1.54-6.114 1.402z"></path><path fill="#F5E8FF" d="M14.96 6.922H9.04L6.077 12l2.961 5.078h5.922L17.92 12z"></path></svg>