<svg data-ds-icon="VIPPlatinumII" width="16" height="16" viewBox="0 0 24 24" xmlns="http://www.w3.org/2000/svg" fill="none" class="inline-block shrink-0"><!----><path fill="#1CC1CA" d="m11.367 19.997-4.914 2.364c-.861.411-1.833-.292-1.705-1.232l.752-5.505a1.22 1.22 0 0 0-.32-.986l-3.851-4.007a1.186 1.186 0 0 1 .65-1.99l5.492-.986a1.21 1.21 0 0 0 .843-.612l2.64-4.893c.45-.83 1.65-.83 2.1 0l2.64 4.893c.174.32.486.548.843.612l5.492.986a1.185 1.185 0 0 1 .65 1.99l-3.859 4.007a1.21 1.21 0 0 0-.32.986l.75 5.505c.13.94-.843 1.643-1.704 1.232l-4.914-2.364a1.46 1.46 0 0 0-1.265 0"></path><path fill="#000" d="M8.47 17.514V9.298h2.494v8.216zm4.566 0V9.298h2.493v8.216z"></path></svg>
