<svg data-ds-icon="VIPSilver" width="20" height="20" viewBox="0 0 24 24" xmlns="http://www.w3.org/2000/svg" fill="none" class="inline-block shrink-0"><!----><path fill="#BDBDBD" d="m12 4.727 1.944 3.431a3.12 3.12 0 0 0 2.217 1.54l.019.002 4.042.697-2.841 2.814a2.94 2.94 0 0 0-.86 2.516l-.002-.016.559 3.867-3.584-1.646A3.6 3.6 0 0 0 12 17.61c-.543 0-1.057.119-1.514.33l.02-.008-3.583 1.646.559-3.867a2.94 2.94 0 0 0-.863-2.5l-2.868-2.814L7.793 9.7c.988-.154 1.808-.732 2.256-1.526l.008-.016zM12 2h-.002a1.2 1.2 0 0 0-1.049.595l-.003.006L8.334 7.27a1.21 1.21 0 0 1-.836.583l-.008.001-5.5.94c-.565.095-.99.56-.99 1.117 0 .303.126.579.33.783l3.859 3.823a1.07 1.07 0 0 1 .32.974v-.007l-.75 5.226a1 1 0 0 0-.012.157c0 .625.533 1.132 1.19 1.132h.004l.035.001c.191 0 .372-.045.53-.125l-.007.002 4.904-2.247a1.5 1.5 0 0 1 1.273.003l-.008-.003 4.83 2.247c.15.077.328.122.516.122h.008l.038.001c.658 0 1.191-.507 1.191-1.132q0-.084-.012-.163v.005l-.75-5.226a1.07 1.07 0 0 1 .321-.94l3.858-3.824A1.1 1.1 0 0 0 23 9.936c0-.555-.42-1.017-.976-1.114l-.007-.001-5.5-.94a1.21 1.21 0 0 1-.848-.604l-.004-.006-2.612-4.67A1.2 1.2 0 0 0 12 2"></path></svg>